<?xml version="1.0" standalone="no"?>
<!DOCTYPE svg PUBLIC "-//W3C//DTD SVG 20010904//EN"
 "http://www.w3.org/TR/2001/REC-SVG-20010904/DTD/svg10.dtd">
<svg version="1.0" xmlns="http://www.w3.org/2000/svg"
 width="188.000000pt" height="205.000000pt" viewBox="0 0 188.000000 205.000000"
 preserveAspectRatio="xMidYMid meet">

<g transform="translate(0.000000,205.000000) scale(0.100000,-0.100000)"
fill="#000000" stroke="none">
<path d="M840 1937 c-25 -7 -54 -17 -65 -23 -11 -6 -32 -14 -47 -18 -30 -7
-145 -103 -165 -138 -7 -13 -19 -43 -27 -68 -8 -25 -23 -65 -32 -90 -12 -31
-19 -88 -23 -180 -6 -132 -7 -135 -28 -132 -14 2 -26 -4 -32 -17 -15 -27 -14
-41 4 -41 12 0 14 -7 9 -27 -4 -16 -11 -32 -15 -37 -5 -6 -9 -42 -9 -82 0 -75
8 -85 43 -56 20 17 24 10 47 -100 20 -92 19 -148 -4 -167 -20 -16 -88 -30
-210 -42 -76 -7 -148 -21 -200 -39 l-81 -27 -3 -326 -2 -327 910 0 c613 0 910
3 910 10 0 24 -61 142 -109 213 -43 62 -66 85 -124 121 -40 25 -83 49 -97 54
-14 6 -70 40 -125 77 -55 37 -136 85 -180 107 -44 22 -82 42 -84 44 -7 7 31
104 50 126 28 32 61 99 89 183 26 77 45 106 64 99 7 -3 13 2 13 11 0 10 -6 13
-19 9 -15 -4 -18 0 -18 28 0 18 7 41 14 51 8 10 12 28 9 40 -4 18 -3 19 6 7 9
-13 11 -13 11 2 0 9 7 21 17 26 23 14 9 44 -19 40 -27 -4 -27 -11 -5 130 16
97 17 125 7 205 -14 107 -50 196 -96 236 -103 91 -279 145 -384 118z m46 -238
c22 1 56 -5 76 -13 19 -8 48 -17 63 -20 53 -10 115 -41 121 -61 4 -11 10 -22
15 -25 4 -3 10 -32 13 -65 8 -91 10 -99 21 -107 12 -9 -6 -11 -110 -12 -88 -1
-125 -17 -98 -44 15 -15 18 -36 3 -27 -14 8 -70 -74 -70 -103 0 -21 -2 -22
-15 -12 -8 7 -15 18 -15 24 0 6 -21 33 -47 60 -41 43 -44 50 -30 60 8 7 13 17
9 23 -13 20 -84 43 -134 43 -44 0 -48 2 -34 15 8 9 13 22 10 29 -3 8 -1 17 5
21 7 4 5 14 -5 31 -15 22 -15 24 0 24 11 0 16 7 15 23 -4 41 1 56 20 62 12 3
21 17 23 32 4 30 57 55 98 45 14 -3 43 -4 66 -3z m-158 -330 c53 -13 85 -35
39 -27 -15 3 -30 1 -33 -4 -3 -5 -22 -8 -42 -7 -20 1 -47 -1 -59 -5 -34 -11
-30 20 5 38 33 19 33 19 90 5z m440 -45 c33 -21 27 -37 -8 -19 -16 8 -40 15
-54 15 -33 0 -57 10 -50 21 7 12 83 0 112 -17z m-168 -44 c0 -5 -5 -10 -11
-10 -5 0 -7 5 -4 10 3 6 8 10 11 10 2 0 4 -4 4 -10z m10 -42 c0 -6 -6 -5 -15
2 -8 7 -15 14 -15 16 0 2 7 1 15 -2 8 -4 15 -11 15 -16z m-231 -42 c19 -20 20
-24 6 -70 -20 -64 -19 -73 4 -48 10 12 27 22 38 22 26 0 42 20 45 53 2 21 5
24 20 16 10 -5 24 -22 32 -38 15 -28 65 -69 67 -54 0 5 1 26 2 48 l2 40 55 -2
c30 -1 49 0 43 3 -16 7 -17 54 -2 54 6 0 9 -9 6 -20 -5 -20 8 -29 15 -10 2 5
16 3 33 -6 54 -26 66 -102 40 -243 -14 -70 -33 -115 -72 -166 -5 -5 -16 -22
-26 -37 -18 -29 -42 -37 -50 -15 -2 6 -8 9 -12 5 -4 -4 -3 -14 4 -22 9 -11 8
-15 -4 -20 -8 -3 -15 -12 -15 -20 0 -8 -20 -24 -44 -35 -37 -18 -54 -20 -117
-15 -76 7 -129 31 -129 60 0 8 -4 14 -10 14 -5 0 -10 6 -10 14 0 7 -13 19 -29
26 -19 7 -35 26 -47 53 -10 23 -26 52 -35 65 -22 29 -37 199 -20 230 6 12 12
34 13 49 3 43 33 56 62 28 14 -14 17 -14 36 2 11 10 20 25 20 33 0 42 43 45
79 6z m-313 -51 c8 -34 -1 -55 -26 -55 -15 0 -20 7 -20 24 0 56 34 79 46 31z
m-171 -502 c33 -2 77 -22 70 -32 -3 -5 12 -19 33 -31 25 -14 45 -36 56 -61 24
-53 53 -53 84 1 12 21 22 50 22 64 0 15 6 26 17 28 17 3 56 -26 64 -48 2 -6
21 -30 41 -53 l38 -41 83 0 c66 0 87 4 103 18 79 73 123 76 86 5 -11 -21 -22
-52 -24 -69 -4 -33 7 -36 57 -19 34 12 -66 -74 -135 -115 -65 -39 -167 -80
-200 -80 -19 0 -73 37 -218 151 -104 81 -163 146 -188 206 -17 39 -29 106 -16
88 4 -6 16 -12 27 -12z m520 -103 c3 -5 -3 -10 -14 -10 -12 0 -21 5 -21 10 0
6 6 10 14 10 8 0 18 -4 21 -10z"/>
<path d="M828 1070 c-24 -23 -23 -30 7 -30 26 0 28 4 17 31 -6 15 -9 14 -24
-1z"/>
<path d="M927 1063 c-14 -13 -6 -23 18 -23 28 0 34 15 9 24 -19 7 -19 7 -27
-1z"/>
<path d="M967 1018 c-15 -5 -25 -13 -22 -18 6 -9 55 11 55 23 0 4 -1 7 -2 6
-2 0 -15 -5 -31 -11z"/>
<path d="M795 1009 c7 -11 35 -12 35 -1 0 4 -9 8 -20 9 -11 1 -18 -2 -15 -8z"/>
<path d="M748 911 c-26 -4 -50 -10 -53 -13 -12 -12 24 -76 56 -100 88 -66 211
-50 284 37 37 44 39 48 22 60 -22 16 -92 26 -132 19 -41 -7 -65 -8 -100 -1
-16 3 -51 2 -77 -2z m248 -36 c14 -10 12 -14 -19 -28 -53 -25 -182 -20 -222 9
-17 13 -18 16 -5 24 21 14 227 10 246 -5z m-133 -71 c-5 -14 -3 -15 17 -4 15
8 25 9 33 1 12 -12 -35 -34 -62 -29 -23 5 -26 35 -4 41 10 3 19 5 20 6 1 0 0
-6 -4 -15z"/>
<path d="M1005 780 c-3 -5 -1 -10 4 -10 6 0 11 5 11 10 0 6 -2 10 -4 10 -3 0
-8 -4 -11 -10z"/>
<path d="M1354 1103 c2 -13 0 -23 -6 -23 -5 0 -8 -8 -6 -17 2 -9 -7 -27 -19
-40 -13 -12 -23 -28 -22 -35 0 -10 2 -10 6 0 7 19 26 14 19 -5 -5 -15 -4 -15
9 1 8 11 16 29 17 40 2 34 3 41 10 51 3 6 1 19 -3 30 -9 18 -9 18 -5 -2z"/>
</g>
</svg>
